<svg width="853" height="40" viewBox="0 0 853 40" fill="none" xmlns="http://www.w3.org/2000/svg">
<circle cx="468" cy="20" r="20" fill="#A4161A"/>
<path d="M376.344 20.864C377.501 21.1253 378.416 21.704 379.088 22.6C379.778 23.4773 380.124 24.4853 380.124 25.624C380.124 27.304 379.545 28.62 378.388 29.572C377.23 30.524 375.606 31 373.516 31H363.744V11.26H373.208C375.224 11.26 376.801 11.708 377.94 12.604C379.097 13.5 379.676 14.76 379.676 16.384C379.676 17.5413 379.368 18.512 378.752 19.296C378.154 20.0613 377.352 20.584 376.344 20.864ZM369.232 19.1H372.004C373.385 19.1 374.076 18.5307 374.076 17.392C374.076 16.216 373.385 15.628 372.004 15.628H369.232V19.1ZM372.424 26.576C373.805 26.576 374.496 25.9973 374.496 24.84C374.496 24.2427 374.309 23.7853 373.936 23.468C373.581 23.1507 373.068 22.992 372.396 22.992H369.232V26.576H372.424ZM391.993 31.196C390.145 31.196 388.446 30.7667 386.897 29.908C385.348 29.0307 384.116 27.8267 383.201 26.296C382.305 24.7467 381.857 23.0013 381.857 21.06C381.857 19.1187 382.305 17.3827 383.201 15.852C384.116 14.3027 385.348 13.0987 386.897 12.24C388.446 11.3813 390.145 10.952 391.993 10.952C393.86 10.952 395.558 11.3813 397.089 12.24C398.638 13.0987 399.861 14.3027 400.757 15.852C401.653 17.3827 402.101 19.1187 402.101 21.06C402.101 23.0013 401.653 24.7467 400.757 26.296C399.861 27.8267 398.638 29.0307 397.089 29.908C395.54 30.7667 393.841 31.196 391.993 31.196ZM391.993 26.1C393.393 26.1 394.494 25.6427 395.297 24.728C396.118 23.8133 396.529 22.5907 396.529 21.06C396.529 19.492 396.118 18.26 395.297 17.364C394.494 16.4493 393.393 15.992 391.993 15.992C390.574 15.992 389.464 16.4493 388.661 17.364C387.858 18.26 387.457 19.492 387.457 21.06C387.457 22.6093 387.858 23.8413 388.661 24.756C389.464 25.652 390.574 26.1 391.993 26.1ZM414.032 31.196C412.184 31.196 410.485 30.7667 408.936 29.908C407.387 29.0307 406.155 27.8267 405.24 26.296C404.344 24.7467 403.896 23.0013 403.896 21.06C403.896 19.1187 404.344 17.3827 405.24 15.852C406.155 14.3027 407.387 13.0987 408.936 12.24C410.485 11.3813 412.184 10.952 414.032 10.952C415.899 10.952 417.597 11.3813 419.128 12.24C420.677 13.0987 421.9 14.3027 422.796 15.852C423.692 17.3827 424.14 19.1187 424.14 21.06C424.14 23.0013 423.692 24.7467 422.796 26.296C421.9 27.8267 420.677 29.0307 419.128 29.908C417.579 30.7667 415.88 31.196 414.032 31.196ZM414.032 26.1C415.432 26.1 416.533 25.6427 417.336 24.728C418.157 23.8133 418.568 22.5907 418.568 21.06C418.568 19.492 418.157 18.26 417.336 17.364C416.533 16.4493 415.432 15.992 414.032 15.992C412.613 15.992 411.503 16.4493 410.7 17.364C409.897 18.26 409.496 19.492 409.496 21.06C409.496 22.6093 409.897 23.8413 410.7 24.756C411.503 25.652 412.613 26.1 414.032 26.1ZM438.283 31L432.095 22.348V31H426.607V11.26H432.095V19.772L438.227 11.26H444.555L437.303 20.836L444.919 31H438.283Z" fill="#1E1E1E"/>
<path d="M455.433 13.752C454.593 13.752 453.902 13.5093 453.361 13.024C452.838 12.52 452.577 11.904 452.577 11.176C452.577 10.4293 452.838 9.81333 453.361 9.328C453.902 8.824 454.593 8.572 455.433 8.572C456.254 8.572 456.926 8.824 457.449 9.328C457.99 9.81333 458.261 10.4293 458.261 11.176C458.261 11.904 457.99 12.52 457.449 13.024C456.926 13.5093 456.254 13.752 455.433 13.752ZM457.813 15.376V31H453.025V15.376H457.813ZM469.991 26.94V31H467.555C465.819 31 464.466 30.58 463.495 29.74C462.524 28.8813 462.039 27.4907 462.039 25.568V19.352H460.135V15.376H462.039V11.568H466.827V15.376H469.963V19.352H466.827V25.624C466.827 26.0907 466.939 26.4267 467.163 26.632C467.387 26.8373 467.76 26.94 468.283 26.94H469.991ZM474.898 31.224C474.058 31.224 473.367 30.9813 472.826 30.496C472.303 29.992 472.042 29.376 472.042 28.648C472.042 27.9013 472.303 27.276 472.826 26.772C473.367 26.268 474.058 26.016 474.898 26.016C475.719 26.016 476.391 26.268 476.914 26.772C477.455 27.276 477.726 27.9013 477.726 28.648C477.726 29.376 477.455 29.992 476.914 30.496C476.391 30.9813 475.719 31.224 474.898 31.224Z" fill="white"/>
<path d="M519 19L509 14.2265V25.7735L519 21V19ZM843.006 21L853.006 25.7735V14.2265L843.006 19V21ZM518 21H844.006V19H518V21Z" fill="#A4161A"/>
<path d="M10 19L0 14.2265L0 25.7735L10 21V19ZM334.006 21L344.006 25.7735V14.2265L334.006 19V21ZM9 21H335.006V19H9V21Z" fill="#1E1E1E"/>
</svg>
