<svg width="567" height="40" viewBox="0 0 567 40" fill="none" xmlns="http://www.w3.org/2000/svg">
<circle cx="336" cy="20" r="20" fill="#A4161A"/>
<path d="M215.21 21.088C215.21 19.1467 215.612 17.42 216.414 15.908C217.236 14.3773 218.393 13.192 219.886 12.352C221.38 11.4933 223.097 11.064 225.038 11.064C227.502 11.064 229.574 11.7267 231.254 13.052C232.934 14.3587 234.017 16.1413 234.502 18.4H228.594C228.24 17.6533 227.745 17.084 227.11 16.692C226.494 16.3 225.776 16.104 224.954 16.104C223.685 16.104 222.668 16.5613 221.902 17.476C221.156 18.372 220.782 19.576 220.782 21.088C220.782 22.6187 221.156 23.8413 221.902 24.756C222.668 25.652 223.685 26.1 224.954 26.1C225.776 26.1 226.494 25.904 227.11 25.512C227.745 25.12 228.24 24.5507 228.594 23.804H234.502C234.017 26.0627 232.934 27.8547 231.254 29.18C229.574 30.4867 227.502 31.14 225.038 31.14C223.097 31.14 221.38 30.72 219.886 29.88C218.393 29.0213 217.236 27.836 216.414 26.324C215.612 24.7933 215.21 23.048 215.21 21.088ZM254.769 11.26V31H249.281V23.076H242.589V31H237.101V11.26H242.589V18.68H249.281V11.26H254.769ZM263.398 15.656V18.876H269.698V23.048H263.398V26.604H270.538V31H257.91V11.26H270.538V15.656H263.398ZM272.578 21.088C272.578 19.1467 272.979 17.42 273.782 15.908C274.603 14.3773 275.76 13.192 277.254 12.352C278.747 11.4933 280.464 11.064 282.406 11.064C284.87 11.064 286.942 11.7267 288.622 13.052C290.302 14.3587 291.384 16.1413 291.87 18.4H285.962C285.607 17.6533 285.112 17.084 284.478 16.692C283.862 16.3 283.143 16.104 282.322 16.104C281.052 16.104 280.035 16.5613 279.27 17.476C278.523 18.372 278.15 19.576 278.15 21.088C278.15 22.6187 278.523 23.8413 279.27 24.756C280.035 25.652 281.052 26.1 282.322 26.1C283.143 26.1 283.862 25.904 284.478 25.512C285.112 25.12 285.607 24.5507 285.962 23.804H291.87C291.384 26.0627 290.302 27.8547 288.622 29.18C286.942 30.4867 284.87 31.14 282.406 31.14C280.464 31.14 278.747 30.72 277.254 29.88C275.76 29.0213 274.603 27.836 273.782 26.324C272.979 24.7933 272.578 23.048 272.578 21.088ZM306.144 31L299.956 22.348V31H294.468V11.26H299.956V19.772L306.088 11.26H312.416L305.164 20.836L312.78 31H306.144Z" fill="#1E1E1E"/>
<path d="M323.294 13.752C322.454 13.752 321.764 13.5093 321.222 13.024C320.7 12.52 320.438 11.904 320.438 11.176C320.438 10.4293 320.7 9.81333 321.222 9.328C321.764 8.824 322.454 8.572 323.294 8.572C324.116 8.572 324.788 8.824 325.31 9.328C325.852 9.81333 326.122 10.4293 326.122 11.176C326.122 11.904 325.852 12.52 325.31 13.024C324.788 13.5093 324.116 13.752 323.294 13.752ZM325.674 15.376V31H320.886V15.376H325.674ZM337.852 26.94V31H335.416C333.68 31 332.327 30.58 331.356 29.74C330.386 28.8813 329.9 27.4907 329.9 25.568V19.352H327.996V15.376H329.9V11.568H334.688V15.376H337.824V19.352H334.688V25.624C334.688 26.0907 334.8 26.4267 335.024 26.632C335.248 26.8373 335.622 26.94 336.144 26.94H337.852ZM342.759 31.224C341.919 31.224 341.229 30.9813 340.687 30.496C340.165 29.992 339.903 29.376 339.903 28.648C339.903 27.9013 340.165 27.276 340.687 26.772C341.229 26.268 341.919 26.016 342.759 26.016C343.581 26.016 344.253 26.268 344.775 26.772C345.317 27.276 345.587 27.9013 345.587 28.648C345.587 29.376 345.317 29.992 344.775 30.496C344.253 30.9813 343.581 31.224 342.759 31.224Z" fill="white"/>
<path d="M377 19L367 14.2265V25.7735L377 21V19ZM557 21L567 25.7735V14.2265L557 19V21ZM376 21H558V19H376V21Z" fill="#A4161A"/>
<path d="M10 19L0 14.2265L0 25.7735L10 21V19ZM190 21L200 25.7735V14.2265L190 19V21ZM9 21H191V19H9V21Z" fill="#1E1E1E"/>
</svg>
