<svg width="826" height="40" viewBox="0 0 826 40" fill="none" xmlns="http://www.w3.org/2000/svg">
<path d="M536 19L526 14.2265V25.7735L536 21V19ZM816 21L826 25.7735V14.2265L816 19V21ZM535 21H817V19H535V21Z" fill="#A4161A"/>
<path d="M10 19L0 14.2265L0 25.7735L10 21V19ZM292 21L302 25.7735V14.2265L292 19V21ZM9 21H293V19H9V21Z" fill="white"/>
<circle cx="489" cy="20" r="20" fill="#A4161A"/>
<path d="M331.136 11.26C333.208 11.26 335.019 11.68 336.568 12.52C338.136 13.3413 339.34 14.4987 340.18 15.992C341.02 17.4853 341.44 19.1933 341.44 21.116C341.44 23.02 341.011 24.7187 340.152 26.212C339.312 27.7053 338.108 28.8813 336.54 29.74C334.991 30.58 333.189 31 331.136 31H323.324V11.26H331.136ZM330.716 26.156C332.321 26.156 333.581 25.7173 334.496 24.84C335.411 23.9627 335.868 22.7213 335.868 21.116C335.868 19.492 335.411 18.2413 334.496 17.364C333.581 16.468 332.321 16.02 330.716 16.02H328.812V26.156H330.716ZM349.402 11.26V31H343.914V11.26H349.402ZM359.975 31.196C357.679 31.196 355.794 30.6547 354.319 29.572C352.844 28.4707 352.051 26.9027 351.939 24.868H357.791C357.847 25.5587 358.052 26.0627 358.407 26.38C358.762 26.6973 359.219 26.856 359.779 26.856C360.283 26.856 360.694 26.7347 361.011 26.492C361.347 26.2307 361.515 25.876 361.515 25.428C361.515 24.8493 361.244 24.4013 360.703 24.084C360.162 23.7667 359.284 23.412 358.071 23.02C356.783 22.5907 355.738 22.18 354.935 21.788C354.151 21.3773 353.46 20.7893 352.863 20.024C352.284 19.24 351.995 18.2227 351.995 16.972C351.995 15.7027 352.312 14.62 352.947 13.724C353.582 12.8093 354.459 12.1187 355.579 11.652C356.699 11.1853 357.968 10.952 359.387 10.952C361.683 10.952 363.512 11.4933 364.875 12.576C366.256 13.64 366.994 15.1427 367.087 17.084H361.123C361.104 16.4867 360.918 16.0387 360.563 15.74C360.227 15.4413 359.788 15.292 359.247 15.292C358.836 15.292 358.5 15.4133 358.239 15.656C357.978 15.8987 357.847 16.244 357.847 16.692C357.847 17.0653 357.987 17.392 358.267 17.672C358.566 17.9333 358.93 18.1667 359.359 18.372C359.788 18.5587 360.423 18.8013 361.263 19.1C362.514 19.5293 363.54 19.9587 364.343 20.388C365.164 20.7987 365.864 21.3867 366.443 22.152C367.04 22.8987 367.339 23.8507 367.339 25.008C367.339 26.184 367.04 27.2387 366.443 28.172C365.864 29.1053 365.015 29.8427 363.895 30.384C362.794 30.9253 361.487 31.196 359.975 31.196ZM369.218 21.088C369.218 19.1467 369.62 17.42 370.422 15.908C371.244 14.3773 372.401 13.192 373.894 12.352C375.388 11.4933 377.105 11.064 379.046 11.064C381.51 11.064 383.582 11.7267 385.262 13.052C386.942 14.3587 388.025 16.1413 388.51 18.4H382.602C382.248 17.6533 381.753 17.084 381.118 16.692C380.502 16.3 379.784 16.104 378.962 16.104C377.693 16.104 376.676 16.5613 375.91 17.476C375.164 18.372 374.79 19.576 374.79 21.088C374.79 22.6187 375.164 23.8413 375.91 24.756C376.676 25.652 377.693 26.1 378.962 26.1C379.784 26.1 380.502 25.904 381.118 25.512C381.753 25.12 382.248 24.5507 382.602 23.804H388.51C388.025 26.0627 386.942 27.8547 385.262 29.18C383.582 30.4867 381.51 31.14 379.046 31.14C377.105 31.14 375.388 30.72 373.894 29.88C372.401 29.0213 371.244 27.836 370.422 26.324C369.62 24.7933 369.218 23.048 369.218 21.088ZM400.573 31.196C398.725 31.196 397.026 30.7667 395.477 29.908C393.928 29.0307 392.696 27.8267 391.781 26.296C390.885 24.7467 390.437 23.0013 390.437 21.06C390.437 19.1187 390.885 17.3827 391.781 15.852C392.696 14.3027 393.928 13.0987 395.477 12.24C397.026 11.3813 398.725 10.952 400.573 10.952C402.44 10.952 404.138 11.3813 405.669 12.24C407.218 13.0987 408.441 14.3027 409.337 15.852C410.233 17.3827 410.681 19.1187 410.681 21.06C410.681 23.0013 410.233 24.7467 409.337 26.296C408.441 27.8267 407.218 29.0307 405.669 29.908C404.12 30.7667 402.421 31.196 400.573 31.196ZM400.573 26.1C401.973 26.1 403.074 25.6427 403.877 24.728C404.698 23.8133 405.109 22.5907 405.109 21.06C405.109 19.492 404.698 18.26 403.877 17.364C403.074 16.4493 401.973 15.992 400.573 15.992C399.154 15.992 398.044 16.4493 397.241 17.364C396.438 18.26 396.037 19.492 396.037 21.06C396.037 22.6093 396.438 23.8413 397.241 24.756C398.044 25.652 399.154 26.1 400.573 26.1ZM432.356 11.26L425.552 31H418.524L411.692 11.26H417.572L422.052 25.512L426.504 11.26H432.356ZM439.554 15.656V18.876H445.854V23.048H439.554V26.604H446.694V31H434.066V11.26H446.694V15.656H439.554ZM459.402 31L455.482 23.72H454.894V31H449.406V11.26H458.058C459.645 11.26 460.989 11.54 462.09 12.1C463.191 12.6413 464.022 13.3973 464.582 14.368C465.142 15.32 465.422 16.3933 465.422 17.588C465.422 18.932 465.049 20.1173 464.302 21.144C463.574 22.152 462.501 22.8707 461.082 23.3L465.534 31H459.402ZM454.894 19.968H457.61C458.357 19.968 458.917 19.7907 459.29 19.436C459.663 19.0813 459.85 18.568 459.85 17.896C459.85 17.2613 459.654 16.7667 459.262 16.412C458.889 16.0387 458.338 15.852 457.61 15.852H454.894V19.968ZM475.853 13.752C475.013 13.752 474.322 13.5093 473.781 13.024C473.258 12.52 472.997 11.904 472.997 11.176C472.997 10.4293 473.258 9.81333 473.781 9.328C474.322 8.824 475.013 8.572 475.853 8.572C476.674 8.572 477.346 8.824 477.869 9.328C478.41 9.81333 478.681 10.4293 478.681 11.176C478.681 11.904 478.41 12.52 477.869 13.024C477.346 13.5093 476.674 13.752 475.853 13.752ZM478.233 15.376V31H473.445V15.376H478.233ZM490.411 26.94V31H487.975C486.239 31 484.885 30.58 483.915 29.74C482.944 28.8813 482.459 27.4907 482.459 25.568V19.352H480.555V15.376H482.459V11.568H487.247V15.376H490.383V19.352H487.247V25.624C487.247 26.0907 487.359 26.4267 487.583 26.632C487.807 26.8373 488.18 26.94 488.703 26.94H490.411ZM495.318 31.224C494.478 31.224 493.787 30.9813 493.246 30.496C492.723 29.992 492.462 29.376 492.462 28.648C492.462 27.9013 492.723 27.276 493.246 26.772C493.787 26.268 494.478 26.016 495.318 26.016C496.139 26.016 496.811 26.268 497.334 26.772C497.875 27.276 498.146 27.9013 498.146 28.648C498.146 29.376 497.875 29.992 497.334 30.496C496.811 30.9813 496.139 31.224 495.318 31.224Z" fill="white"/>
</svg>
