<svg width="142" height="40" viewBox="0 0 142 40" fill="none" xmlns="http://www.w3.org/2000/svg">
<circle cx="109" cy="20" r="20" fill="#A4161A"/>
<path d="M28.8788 17.84C28.8788 19.0347 28.5988 20.1267 28.0388 21.116C27.4975 22.0867 26.6668 22.8707 25.5468 23.468C24.4455 24.0467 23.0922 24.336 21.4868 24.336H18.7708V31H13.2828V11.26H21.4868C23.0735 11.26 24.4175 11.54 25.5188 12.1C26.6388 12.66 27.4788 13.4347 28.0388 14.424C28.5988 15.4133 28.8788 16.552 28.8788 17.84ZM20.9548 19.968C22.5042 19.968 23.2788 19.2587 23.2788 17.84C23.2788 16.4027 22.5042 15.684 20.9548 15.684H18.7708V19.968H20.9548ZM36.5716 26.8H42.7036V31H31.0836V11.26H36.5716V26.8ZM57.3255 27.78H50.3255L49.2615 31H43.4935L50.6895 11.26H57.0175L64.1855 31H58.3895L57.3255 27.78ZM55.9535 23.58L53.8255 17.196L51.7255 23.58H55.9535ZM84.2583 31H78.7703L71.4623 19.968V31H65.9743V11.26H71.4623L78.7703 22.432V11.26H84.2583V31Z" fill="#1E1E1E"/>
<path d="M95.894 13.752C95.054 13.752 94.3633 13.5093 93.822 13.024C93.2993 12.52 93.038 11.904 93.038 11.176C93.038 10.4293 93.2993 9.81333 93.822 9.328C94.3633 8.824 95.054 8.572 95.894 8.572C96.7153 8.572 97.3873 8.824 97.91 9.328C98.4513 9.81333 98.722 10.4293 98.722 11.176C98.722 11.904 98.4513 12.52 97.91 13.024C97.3873 13.5093 96.7153 13.752 95.894 13.752ZM98.274 15.376V31H93.486V15.376H98.274ZM110.452 26.94V31H108.016C106.28 31 104.926 30.58 103.956 29.74C102.985 28.8813 102.5 27.4907 102.5 25.568V19.352H100.596V15.376H102.5V11.568H107.288V15.376H110.424V19.352H107.288V25.624C107.288 26.0907 107.4 26.4267 107.624 26.632C107.848 26.8373 108.221 26.94 108.744 26.94H110.452ZM115.359 31.224C114.519 31.224 113.828 30.9813 113.287 30.496C112.764 29.992 112.503 29.376 112.503 28.648C112.503 27.9013 112.764 27.276 113.287 26.772C113.828 26.268 114.519 26.016 115.359 26.016C116.18 26.016 116.852 26.268 117.375 26.772C117.916 27.276 118.187 27.9013 118.187 28.648C118.187 29.376 117.916 29.992 117.375 30.496C116.852 30.9813 116.18 31.224 115.359 31.224Z" fill="white"/>
</svg>
