<svg width="36" height="61" viewBox="0 0 36 61" fill="none" xmlns="http://www.w3.org/2000/svg">
<g clip-path="url(#clip0_1035_207)">
<g filter="url(#filter0_d_1035_207)">
<path d="M32.872 16.52V25.256H22.344V56H11.368V25.256H0.952V16.52H32.872ZM47.9089 30.128C49.1409 28.336 50.6342 26.9173 52.3889 25.872C54.1435 24.8267 56.0289 24.304 58.0449 24.304V36.008H54.9649C52.5755 36.008 50.8022 36.4747 49.6449 37.408C48.4875 38.3413 47.9089 39.9653 47.9089 42.28V56H36.9329V24.584H47.9089V30.128ZM60.1878 40.264C60.1878 37.016 60.7664 34.1787 61.9238 31.752C63.1184 29.3253 64.7238 27.4587 66.7398 26.152C68.7931 24.8453 71.0704 24.192 73.5718 24.192C75.7371 24.192 77.6038 24.6213 79.1718 25.48C80.7398 26.3387 81.9531 27.496 82.8118 28.952V24.584H93.7878V56H82.8118V51.632C81.9531 53.088 80.7211 54.2453 79.1158 55.104C77.5478 55.9627 75.6998 56.392 73.5718 56.392C71.0704 56.392 68.7931 55.7387 66.7398 54.432C64.7238 53.1253 63.1184 51.2587 61.9238 48.832C60.7664 46.368 60.1878 43.512 60.1878 40.264ZM82.8118 40.264C82.8118 38.248 82.2518 36.6613 81.1318 35.504C80.0491 34.3467 78.7051 33.768 77.0998 33.768C75.4571 33.768 74.0944 34.3467 73.0118 35.504C71.9291 36.624 71.3878 38.2107 71.3878 40.264C71.3878 42.28 71.9291 43.8853 73.0118 45.08C74.0944 46.2373 75.4571 46.816 77.0998 46.816C78.7051 46.816 80.0491 46.2373 81.1318 45.08C82.2518 43.9227 82.8118 42.3173 82.8118 40.264ZM115.106 45.64L120.986 24.584H132.69L121.882 56H108.218L97.4103 24.584H109.114L115.106 45.64ZM166.425 39.928C166.425 40.7867 166.369 41.6453 166.257 42.504H145.481C145.593 44.2213 146.06 45.5093 146.881 46.368C147.74 47.1893 148.823 47.6 150.129 47.6C151.959 47.6 153.265 46.7787 154.049 45.136H165.753C165.268 47.3013 164.316 49.2427 162.897 50.96C161.516 52.64 159.761 53.9653 157.633 54.936C155.505 55.9067 153.153 56.392 150.577 56.392C147.479 56.392 144.716 55.7387 142.289 54.432C139.9 53.1253 138.015 51.2587 136.633 48.832C135.289 46.4053 134.617 43.5493 134.617 40.264C134.617 36.9787 135.289 34.1413 136.633 31.752C137.977 29.3253 139.844 27.4587 142.233 26.152C144.66 24.8453 147.441 24.192 150.577 24.192C153.676 24.192 156.42 24.8267 158.809 26.096C161.199 27.3653 163.065 29.1947 164.409 31.584C165.753 33.936 166.425 36.7173 166.425 39.928ZM155.225 37.184C155.225 35.84 154.777 34.7947 153.881 34.048C152.985 33.264 151.865 32.872 150.521 32.872C149.177 32.872 148.076 33.2453 147.217 33.992C146.359 34.7013 145.799 35.7653 145.537 37.184H155.225ZM181.893 14.56V56H170.917V14.56H181.893Z" fill="white"/>
</g>
</g>
<g filter="url(#filter1_d_1035_207)">
<circle cx="17.5" cy="5.5" r="5.5" fill="white"/>
</g>
<defs>
<filter id="filter0_d_1035_207" x="0.952026" y="14.56" width="184.941" height="45.832" filterUnits="userSpaceOnUse" color-interpolation-filters="sRGB">
<feFlood flood-opacity="0" result="BackgroundImageFix"/>
<feColorMatrix in="SourceAlpha" type="matrix" values="0 0 0 0 0 0 0 0 0 0 0 0 0 0 0 0 0 0 127 0" result="hardAlpha"/>
<feOffset dx="4" dy="4"/>
<feComposite in2="hardAlpha" operator="out"/>
<feColorMatrix type="matrix" values="0 0 0 0 0.117647 0 0 0 0 0.117647 0 0 0 0 0.117647 0 0 0 1 0"/>
<feBlend mode="normal" in2="BackgroundImageFix" result="effect1_dropShadow_1035_207"/>
<feBlend mode="normal" in="SourceGraphic" in2="effect1_dropShadow_1035_207" result="shape"/>
</filter>
<filter id="filter1_d_1035_207" x="12" y="0" width="14" height="14" filterUnits="userSpaceOnUse" color-interpolation-filters="sRGB">
<feFlood flood-opacity="0" result="BackgroundImageFix"/>
<feColorMatrix in="SourceAlpha" type="matrix" values="0 0 0 0 0 0 0 0 0 0 0 0 0 0 0 0 0 0 127 0" result="hardAlpha"/>
<feOffset dx="3" dy="3"/>
<feComposite in2="hardAlpha" operator="out"/>
<feColorMatrix type="matrix" values="0 0 0 0 0.117647 0 0 0 0 0.117647 0 0 0 0 0.117647 0 0 0 1 0"/>
<feBlend mode="normal" in2="BackgroundImageFix" result="effect1_dropShadow_1035_207"/>
<feBlend mode="normal" in="SourceGraphic" in2="effect1_dropShadow_1035_207" result="shape"/>
</filter>
<clipPath id="clip0_1035_207">
<rect width="36" height="52" fill="white" transform="translate(0 9)"/>
</clipPath>
</defs>
</svg>
